<?xml version="1.0" encoding="iso-8859-1"?>
<!-- Generator: Adobe Illustrator 19.0.0, SVG Export Plug-In . SVG Version: 6.00 Build 0)  -->
<svg version="1.1" id="Capa_1" xmlns="http://www.w3.org/2000/svg" xmlns:xlink="http://www.w3.org/1999/xlink" x="0px" y="0px"
	 viewBox="0 0 512 512" style="enable-background:new 0 0 512 512;" xml:space="preserve">
<path style="fill:#79C6E4;" d="M139.751,279.044H23.044C10.317,279.044,0,268.727,0,255.999s10.317-23.044,23.044-23.044h116.707
	c12.727,0,23.044,10.317,23.044,23.044C162.794,268.727,152.478,279.044,139.751,279.044z"/>
<path style="opacity:0.05;enable-background:new    ;" d="M23.044,232.955C10.317,232.955,0,243.272,0,255.999
	s10.317,23.044,23.044,23.044h35.931v-46.087H23.044V232.955z"/>
<g>
	<path style="fill:#79C6E4;" d="M22.204,415.355C9.716,414.911,0,404.27,0,391.775V119.673c0-12.727,10.317-23.044,23.044-23.044
		h123.508c12.495,0,23.137,9.716,23.581,22.203c0.466,13.11-10.023,23.884-23.029,23.884H56.191c-5.58,0-10.104,4.524-10.104,10.104
		v239.507C46.087,405.333,35.313,415.822,22.204,415.355z"/>
	<path style="fill:#79C6E4;" d="M319.75,239.395H208.735c-12.727,0-23.044-10.317-23.044-23.044s10.317-23.044,23.044-23.044H319.75
		c12.727,0,23.044,10.317,23.044,23.044C342.793,229.077,332.476,239.395,319.75,239.395z"/>
</g>
<path style="opacity:0.05;enable-background:new    ;" d="M220.966,193.307c-0.043,1.204-0.072,2.411-0.072,3.625v42.462h46.087
	v-42.462c0-1.219,0.055-2.425,0.135-3.625H220.966z"/>
<path style="fill:#79C6E4;" d="M231.271,415.371c-12.727,0-23.044-10.317-23.044-23.044V196.932
	c0-55.307,44.997-100.303,100.304-100.303h11.218c12.727,0,23.044,10.317,23.044,23.044c0,12.727-10.317,23.044-23.044,23.044
	h-11.218c-29.895,0-54.217,24.321-54.217,54.216v195.394C254.314,405.053,243.997,415.371,231.271,415.371z"/>
<g>
	<path style="fill:#404B58;" d="M444.496,437.772c-4.143,0-7.5-3.358-7.5-7.5V81.729c0-4.142,3.357-7.5,7.5-7.5s7.5,3.358,7.5,7.5
		v348.543C451.996,434.414,448.639,437.772,444.496,437.772z"/>
	<path style="fill:#404B58;" d="M504.5,89.229H384.492c-4.143,0-7.5-3.358-7.5-7.5s3.357-7.5,7.5-7.5H504.5
		c4.143,0,7.5,3.358,7.5,7.5S508.643,89.229,504.5,89.229z"/>
	<path style="fill:#404B58;" d="M504.5,437.772H384.492c-4.143,0-7.5-3.358-7.5-7.5s3.357-7.5,7.5-7.5H504.5
		c4.143,0,7.5,3.358,7.5,7.5S508.643,437.772,504.5,437.772z"/>
</g>
<g>
</g>
<g>
</g>
<g>
</g>
<g>
</g>
<g>
</g>
<g>
</g>
<g>
</g>
<g>
</g>
<g>
</g>
<g>
</g>
<g>
</g>
<g>
</g>
<g>
</g>
<g>
</g>
<g>
</g>
</svg>
